# AST/ASF file generated using VICON BodyLanguage
# -----------------------------------------------
:version 1.10
:name VICON
:units
  mass 1.0
  length 0.45
  angle deg
:documentation
   .ast/.asf automatically generated from VICON data using
   VICON BodyBuilder and BodyLanguage model FoxedUp or BRILLIANT.MOD
:root
   order TX TY TZ RX RY RZ
   axis XYZ
   position 0 0 0  
   orientation 0 0 0 
:bonedata
  begin
     id 1 
     name lhipjoint
     direction 0.521452 -0.77106 0.36545 
     length 2.0933 
     axis 0 0 0  XYZ
  end
  begin
     id 2 
     name lfemur
     direction 0.34202 -0.939693 0  
     length 6.83441  
     axis 0 0 20  XYZ
    dof rx ry rz
    limits (-160.0 20.0)
           (-70.0 70.0)
           (-60.0 70.0)
  end
  begin
     id 3 
     name ltibia
     direction 0.34202 -0.939693 0   
     length 7.28749   
     axis 0 0 20   XYZ
    dof rx
    limits (-10.0 170.0)
  end
  begin
     id 4 
     name lfoot
     direction 0.100608 -0.276418 0.955757   
     length 1.52195   
     axis -90 7.62852e-016 20   XYZ
    dof rx rz
    limits (-45.0 90.0)
           (-70.0 20.0)
  end
  begin
     id 5 
     name ltoes
     direction 1.53558e-011 -4.21907e-011 1   
     length 0.770459   
     axis -90 7.62852e-016 20   XYZ
    dof rx
    limits (-90.0 20.0)
  end
  begin
     id 6 
     name rhipjoint
     direction -0.488071 -0.788702 0.373812   
     length 2.04648  
     axis 0 0 0  XYZ 
  end
  begin
     id 7 
     name rfemur
     direction -0.34202 -0.939693 0   
     length 6.92583   
     axis 0 0 -20   XYZ
    dof rx ry rz
    limits (-160.0 20.0)
           (-70.0 70.0)
           (-70.0 60.0)
  end
  begin
     id 8 
     name rtibia
     direction -0.34202 -0.939693 0   
     length 7.41043   
     axis 0 0 -20   XYZ
    dof rx
    limits (-10.0 170.0)
 end
 begin
     id 9 
     name rfoot
     direction -0.0784433 -0.215521 0.973343   
     length 1.67708  
     axis -90 -7.62852e-016 -20   XYZ
    dof rx rz
    limits (-45.0 90.0)
           (-20.0 70.0)
  end
  begin
     id 10 
     name rtoes
     direction -1.53551e-011 -4.21842e-011 1   
     length 0.849787   
     axis -90 -7.62852e-016 -20   XYZ
    dof rx
    limits (-90.0 20.0)
  end
  begin
     id 11 
     name lowerback
     direction -0.0122332 0.997575 -0.0685192   
     length 1.98724   
     axis 0 0 0   XYZ
    dof rx ry rz
    limits (-20.0 45.0)
           (-30.0 30.0)
           (-30.0 30.0)
  end
  begin
     id 12 
     name upperback
     direction 0.0182347 0.999724 -0.0148421   
     length 1.99029   
     axis 0 0 0   XYZ
    dof rx ry rz
    limits (-20.0 45.0)
           (-30.0 30.0)
           (-30.0 30.0)
  end
  begin
     id 13 
     name thorax
     direction 0.0242908 0.99956 0.0170184   
     length 1.99573   
     axis 0 0 0   XYZ
    dof rx ry rz
    limits (-20.0 45.0)
           (-30.0 30.0)
           (-30.0 30.0)
  end
  begin
     id 14 
     name lowerneck
     direction 0.0654488 0.985533 0.156338   
     length 1.4285   
     axis 0 0 0   XYZ
    dof rx ry rz
    limits (-20.0 45.0)
           (-30.0 30.0)
           (-30.0 30.0)
  end
  begin
     id 15 
     name upperneck
     direction -0.02953 0.998556 -0.0448842   
     length 1.44709   
     axis 0 0 0   XYZ
    dof rx ry rz
    limits (-20.0 45.0)
           (-30.0 30.0)
           (-30.0 30.0)
  end
  begin
     id 16
     name head
     direction -0.0155588 0.999386 -0.0314063  
     length 1.44689  
     axis 0 0 0   XYZ
    dof rx ry rz
    limits (-20.0 45.0)
           (-30.0 30.0)
           (-30.0 30.0)
  end
  begin
     id 17 
     name lclavicle
     direction 0.968229 0.236071 -0.0824755  
     length 3.60593  
     axis 0 0 0   XYZ
    dof ry rz
    limits (-20.0 10.0)
           (0.0 20.0)
  end
  begin
     id 18 
     name lhumerus
     direction 1 -4.48968e-011 7.8138e-029   
     length 5.06035   
     axis 180 -30 -90   XYZ
    dof rx ry rz
    limits (-60.0 90.0)
           (-90.0 90.0)
           (-90.0 90.0)
  end
  begin
     id 19
     name lradius
     direction 1 -4.48967e-011 9.02887e-028   
     length 3.1478   
     axis 180 -30 -90   XYZ
    dof rx
    limits (-10.0 170.0)
  end
  begin
     id 20
     name lwrist
     direction 1 -4.48961e-011 7.20928e-028   
     length 1.5739   
     axis -5.52449e-016 90 90   XYZ
    dof ry
    limits (-180.0 0.0)
 end
  begin
     id 21 
     name lhand
     direction 1 -4.48972e-011 1.44186e-027   
     length 0.606747   
     axis -9.20027e-016 90 90   XYZ
    dof rx rz
    limits (-90.0 90.0)
           (-45.0 45.0)
  end
  begin
     id 22 
     name lfingers
     direction 1 -4.48943e-011 2.88371e-027   
     length 0.489175   
     axis -1.84005e-015 90 90   XYZ
    dof rx
    limits (0.0 90.0)
  end
  begin
     id 23
     name lthumb
     direction 0.707107 -6.34917e-011 0.707107   
     length 0.70236   
     axis -90 45 2.85299e-015   XYZ
    dof rx rz
    limits (-45.0 45.0)
           (-45.0 45.0)
  end
  begin
     id 24 
     name rclavicle
     direction -0.978165 0.207816 0.0022268   
     length 3.35425  
     axis 0 0 0   XYZ 
    dof ry rz
    limits (-10.0 20.0)
           (-20.0 0.0)
  end
  begin
     id 25 
     name rhumerus
     direction -1 -4.48964e-011 -4.02159e-027  
     length 5.12273   
     axis 180 30 90   XYZ
    dof rx ry rz
    limits (-90.0 60.0)
           (-90.0 90.0)
           (-90.0 90.0)
  end
  begin
     id 26 
     name rradius
     direction -1 -4.48966e-011 1.62746e-027   
     length 3.422   
     axis 180 30 90   XYZ
    dof rx
    limits (-10.0 170.0)
  end
  begin
     id 27 
     name rwrist
     direction -1 -4.4896e-011 7.20928e-028   
     length 1.711   
     axis -5.52449e-016 -90 -90   XYZ
    dof ry
    limits (-180.0 0.0)
  end
  begin
     id 28
     name rhand
     direction -1 -4.48979e-011 1.44186e-027   
     length 0.704599   
     axis -9.20027e-016 -90 -90   XYZ
    dof rx rz
    limits (-90.0 90.0)
           (-45.0 45.0)
  end
  begin
     id 29
     name rfingers
     direction -1 -4.48962e-011 2.88371e-027   
     length 0.568066   
     axis -1.84005e-015 -90 -90   XYZ
    dof rx
    limits (0.0 90.0)
  end
  begin
     id 30
     name rthumb
     direction -0.707107 -6.34949e-011 0.707107   
     length 0.815633   
     axis -90 -45 -2.85299e-015   XYZ
    dof rx rz
    limits (-45.0 45.0)
           (-45.0 45.0)
  end
:hierarchy
  begin
    root lhipjoint rhipjoint lowerback
    lhipjoint lfemur
    lfemur ltibia
    ltibia lfoot
    lfoot ltoes
    rhipjoint rfemur
    rfemur rtibia
    rtibia rfoot
    rfoot rtoes
    lowerback upperback
    upperback thorax
    thorax lowerneck lclavicle rclavicle
    lowerneck upperneck
    upperneck head
    lclavicle lhumerus
    lhumerus lradius
    lradius lwrist
    lwrist lhand lthumb
    lhand lfingers
    rclavicle rhumerus
    rhumerus rradius
    rradius rwrist
    rwrist rhand rthumb
    rhand rfingers
  end

#!OML:ASF Z:\Project 1\Capture day 1\Session 1\Male1.ASF
:FULLY-SPECIFIED
:DEGREES
642
root 24.6828 16.5154 -5.98494 -172.581 30.7337 -179.164
lowerback -6.15429 -1.5528 0.0256523
upperback 0.518857 -2.12765 2.24373
thorax 4.07388 -1.06534 2.10304
lowerneck -4.08921 -5.67444 -4.48671
upperneck -13.7727 -6.52257 3.8867
head -3.46782 -2.84552 2.13611
rclavicle -1.01728e-013 1.15295e-014
rhumerus 80.4746 -0.111363 -79.255
rradius 19.783
rwrist 67.6703
rhand -24.4888 22.8305
rfingers 7.12502
rthumb 2.00532 -7.13984
lclavicle -1.01728e-013 1.15295e-014
lhumerus 67.4793 -10.951 52.4967
lradius 59.5315
lwrist -12.3267
lhand -37.4355 56.4874
lfingers 7.12502
lthumb -10.4948 86.2054
rfemur -11.9268 -6.58061 24.6796
rtibia 17.8918
rfoot -11.4153 -8.67661
rtoes -2.53251
lfemur 11.8432 -5.56325 -12.1949
ltibia 18.1743
lfoot 13.6387 4.12748
ltoes 48.0671
643
root 24.6833 16.5149 -5.98585 -172.582 30.7644 -179.237
lowerback -6.16615 -1.58323 -0.0907991
upperback 0.509924 -2.16091 2.29477
thorax 4.07907 -1.0847 2.21801
lowerneck -4.13551 -5.65705 -4.39364
upperneck -13.8103 -6.51506 3.66104
head -3.4832 -2.83569 2.0443
rclavicle 8.59744e-014 -5.40694e-014
rhumerus 80.439 -0.0274467 -79.049
rradius 19.9086
rwrist 67.4707
rhand -24.5857 22.7253
rfingers 7.12502
rthumb 1.91168 -7.24593
lclavicle 8.59744e-014 -5.40694e-014
lhumerus 68.0232 -10.8134 52.5603
lradius 58.8112
lwrist -12.391
lhand -37.5834 55.6498
lfingers 7.12502
lthumb -10.6374 85.3606
rfemur -11.9669 -6.33282 24.6008
rtibia 17.9249
rfoot -11.5934 -8.77273
rtoes 1.08616
lfemur 11.8608 -5.49372 -12.2457
ltibia 18.0886
lfoot 13.6328 4.06582
ltoes 48.1154
644
root 24.682 16.5147 -5.98701 -172.587 30.7649 -179.232
lowerback -6.12365 -1.6252 -0.167433
upperback 0.520289 -2.21309 2.41033
thorax 4.07587 -1.11266 2.37692
lowerneck -4.29056 -5.62882 -4.47736
upperneck -13.7696 -6.48034 3.50412
head -3.4447 -2.80639 1.99918
rclavicle -4.59193e-014 -1.82882e-014
rhumerus 80.459 0.150256 -79.0675
rradius 19.9475
rwrist 67.6073
rhand -24.67 22.7645
rfingers 7.12502
rthumb 1.83027 -7.20737
lclavicle -4.59193e-014 -1.82882e-014
lhumerus 68.5213 -10.6526 52.7683
lradius 58.0366
lwrist -12.6734
lhand -37.8724 55.4688
lfingers 7.12502
lthumb -10.9162 85.1651
rfemur -11.9771 -6.19234 24.5936
rtibia 17.9917
rfoot -11.3556 -9.08682
rtoes -2.75761
lfemur 11.9764 -5.55823 -12.2682
ltibia 17.9428
lfoot 13.6422 4.19887
ltoes 48.399
645
root 24.6812 16.5168 -5.98924 -172.56 30.7404 -179.207
lowerback -6.12627 -1.67621 -0.208606
upperback 0.523773 -2.27967 2.50763
thorax 4.08982 -1.14679 2.49454
lowerneck -4.44972 -5.59014 -4.67961
upperneck -13.6795 -6.41025 3.58296
head -3.37852 -2.76431 2.05108
rclavicle -2.6339e-015 -3.18055e-015
rhumerus 80.4696 0.377204 -79.2188
rradius 19.9597
rwrist 67.934
rhand -24.711 23.0606
rfingers 7.12502
rthumb 1.79066 -6.91166
lclavicle -2.6339e-015 -3.18055e-015
lhumerus 69.026 -10.5144 52.7575
lradius 57.1965
lwrist -12.8447
lhand -38.4284 55.9371
lfingers 7.12502
lthumb -11.4525 85.6043
rfemur -12.0389 -6.1428 24.6035
rtibia 18.0782
rfoot -11.4057 -9.0077
rtoes 0.898553
lfemur 12.058 -5.71986 -12.3039
ltibia 17.7914
lfoot 13.6348 4.26126
ltoes 48.335
646
root 24.687 16.5175 -5.99089 -172.552 30.7443 -179.313
lowerback -6.22267 -1.72176 -0.406241
upperback 0.510525 -2.32794 2.53229
thorax 4.14189 -1.17582 2.6242
lowerneck -4.47121 -5.53867 -4.58819
upperneck -13.6975 -6.34432 3.5244
head -3.38839 -2.73304 2.01538
rclavicle 8.66204e-014 1.90833e-014
rhumerus 80.4464 0.453659 -79.3122
rradius 19.944
rwrist 67.9974
rhand -24.7192 23.141
rfingers 7.12502
rthumb 1.78279 -6.8313
lclavicle 8.66204e-014 1.90833e-014
lhumerus 69.5248 -10.4037 52.4787
lradius 56.5147
lwrist -12.7257
lhand -38.5979 55.671
lfingers 7.12502
lthumb -11.6159 85.329
rfemur -12.1488 -5.75703 24.4796
rtibia 18.1674
rfoot -11.3426 -9.24772
rtoes 1.50279
lfemur 12.0756 -5.88982 -12.4432
ltibia 17.655
lfoot 13.5495 4.39692
ltoes 48.3154
647
root 24.6767 16.5149 -5.99404 -172.581 30.6968 -179.445
lowerback -6.18777 -1.77441 -0.413687
upperback 0.480828 -2.39631 2.49959
thorax 4.09366 -1.20951 2.58886
lowerneck -4.43895 -5.5101 -4.40272
upperneck -13.8323 -6.31621 3.35745
head -3.45364 -2.71739 1.93308
rclavicle -7.55879e-014 1.03368e-014
rhumerus 80.3767 0.493799 -78.8564
rradius 20.0249
rwrist 67.4343
rhand -24.6842 23.0476
rfingers 7.12502
rthumb 1.81659 -6.92436
lclavicle -7.55879e-014 1.03368e-014
lhumerus 70.0207 -10.4975 52.0223
lradius 55.8685
lwrist -12.3508
lhand -40.0802 58.6705
lfingers 7.12502
lthumb -13.0451 88.2425
rfemur -12.2376 -6.00754 24.3276
rtibia 18.2484
rfoot -11.3924 -9.1841
rtoes 1.83169
lfemur 12.1275 -6.03769 -12.6421
ltibia 17.5148
lfoot 13.3909 4.66257
ltoes 48.5711
648
root 24.6714 16.514 -5.99594 -172.554 30.644 -179.513
lowerback -6.19379 -1.83384 -0.440431
upperback 0.456226 -2.47339 2.51213
thorax 4.07714 -1.24813 2.60941
lowerneck -4.35641 -5.46878 -4.32265
upperneck -14.0083 -6.26641 3.23513
head -3.53927 -2.68635 1.88656
rclavicle -6.01324e-015 -2.54444e-014
rhumerus 80.3495 0.549852 -78.5276
rradius 20.1507
rwrist 67.0147
rhand -24.7525 22.8364
rfingers 7.12502
rthumb 1.75063 -7.13615
lclavicle -6.01324e-015 -2.54444e-014
lhumerus 70.5132 -10.4179 52.585
lradius 55.106
lwrist -13.3144
lhand -40.0813 57.8197
lfingers 7.12502
lthumb -13.0461 87.3917
rfemur -12.3425 -6.34275 24.2904
rtibia 18.315
rfoot -11.5165 -9.01219
rtoes 1.00541
lfemur 12.1504 -5.98167 -12.6647
ltibia 17.3835
lfoot 13.291 4.73268
ltoes 49.0109
649
root 24.6664 16.5174 -5.99855 -172.483 30.6298 -179.512
lowerback -6.20777 -1.85709 -0.37292
upperback 0.422391 -2.50784 2.4929
thorax 4.04774 -1.26301 2.5481
lowerneck -4.33377 -5.44177 -4.13156
upperneck -14.0584 -6.24143 3.12462
head -3.57124 -2.67832 1.81923
rclavicle -9.03973e-014 -7.95139e-016
rhumerus 80.344 0.514691 -78.6581
rradius 20.2193
rwrist 66.9676
rhand -24.9294 22.4998
rfingers 7.12502
rthumb 1.57976 -7.47406
lclavicle -9.03973e-014 -7.95139e-016
lhumerus 71.0517 -10.4683 52.7652
lradius 54.3157
lwrist -13.7392
lhand -40.512 58.0817
lfingers 7.12502
lthumb -13.4613 87.6267
rfemur -12.4557 -6.48568 24.2839
rtibia 18.3501
rfoot -11.7004 -8.78228
rtoes 1.7969
lfemur 12.1346 -5.89411 -12.6371
ltibia 17.2885
lfoot 13.2048 4.66639
ltoes 49.0481
650
root 24.6605 16.5181 -6.00004 -172.462 30.6354 -179.511
lowerback -6.15951 -1.86705 -0.282991
upperback 0.392527 -2.52521 2.43242
thorax 3.98353 -1.26895 2.43485
lowerneck -4.35614 -5.43355 -3.81035
upperneck -14.0587 -6.24433 3.00675
head -3.58035 -2.69196 1.72453
rclavicle -1.20662e-013 5.08889e-014
rhumerus 80.2951 0.513444 -78.8444
rradius 20.2528
rwrist 67.0128
rhand -25.0514 22.4183
rfingers 7.12502
rthumb 1.46191 -7.55641
lclavicle -1.20662e-013 5.08889e-014
lhumerus 71.5502 -10.5688 52.352
lradius 53.7386
lwrist -13.6958
lhand -41.3989 59.1985
lfingers 7.12502
lthumb -14.316 88.685
rfemur -12.4974 -6.36971 24.2579
rtibia 18.3835
rfoot -11.5938 -8.94791
rtoes 0.500412
lfemur 12.1765 -5.94686 -12.6861
ltibia 17.1834
lfoot 13.0928 4.80851
ltoes 49.0661
651
root 24.6593 16.5185 -6.00039 -172.471 30.6399 -179.55
lowerback -6.12454 -1.88485 -0.290304
upperback 0.373473 -2.54707 2.37945
thorax 3.94287 -1.27975 2.38315
lowerneck -4.27547 -5.37863 -3.63773
upperneck -14.1884 -6.17243 2.95926
head -3.65051 -2.6596 1.68516
rclavicle 1.26725e-014 2.3059e-014
rhumerus 80.255 0.538849 -79.2634
rradius 20.2219
rwrist 67.3319
rhand -25.1569 22.4803
rfingers 7.12502
rthumb 1.36 -7.49514
lclavicle 1.26725e-014 2.3059e-014
lhumerus 71.9823 -10.4893 52.1771
lradius 53.1365
lwrist -14.2248
lhand -41.418 58.5095
lfingers 7.12502
lthumb -14.3344 87.9946
rfemur -12.5286 -6.21662 24.2189
rtibia 18.4253
rfoot -11.3922 -9.16051
rtoes 0.86784
lfemur 12.2363 -6.01215 -12.7434
ltibia 17.0709
lfoot 13.0701 5.03802
ltoes 49.3394
652
root 24.6589 16.5198 -6.00071 -172.471 30.659 -179.594
lowerback -6.11151 -1.90378 -0.31823
upperback 0.358007 -2.56943 2.33254
thorax 3.9195 -1.29136 2.3486
lowerneck -3.82053 -5.1819 -3.50465
upperneck -14.6866 -5.88846 3.08458
head -3.9237 -2.51917 1.73048
rclavicle -1.97194e-013 4.21423e-014
rhumerus 80.2131 0.56285 -79.432
rradius 20.2281
rwrist 67.4153
rhand -25.2246 22.6044
rfingers 7.12502
rthumb 1.29467 -7.37145
lclavicle -1.97194e-013 4.21423e-014
lhumerus 72.4079 -10.4201 52.084
lradius 52.566
lwrist -14.5435
lhand -41.6961 57.7721
lfingers 7.12502
lthumb -14.6023 87.238
rfemur -12.5927 -6.17937 24.1655
rtibia 18.4485
rfoot -11.3887 -9.0754
rtoes 3.66583
lfemur 12.2536 -5.97445 -12.7831
ltibia 17.0076
lfoot 13.0852 5.10575
ltoes 49.4126
653
root 24.6553 16.5195 -6.00059 -172.461 30.6685 -179.623
lowerback -6.09037 -1.92695 -0.324134
upperback 0.338587 -2.59921 2.32808
thorax 3.88885 -1.30601 2.34535
lowerneck -3.89641 -5.1824 -3.34211
upperneck -14.6641 -5.89014 3.04349
head -3.90719 -2.52672 1.68562
rclavicle -8.96022e-014 -3.33958e-014
rhumerus 80.1585 0.618152 -79.0791
rradius 20.312
rwrist 67.0375
rhand -25.2539 22.6587
rfingers 7.12502
rthumb 1.26633 -7.31727
lclavicle -8.96022e-014 -3.33958e-014
lhumerus 72.7061 -10.4529 51.8288
lradius 52.2798
lwrist -14.3679
lhand -42.3656 58.7777
lfingers 7.12502
lthumb -15.2474 88.1957
rfemur -12.6637 -6.32812 24.1415
rtibia 18.477
rfoot -11.3916 -8.99737
rtoes 1.62255
lfemur 12.2611 -5.94548 -12.8202
ltibia 16.9584
lfoot 12.9536 5.22859
ltoes 49.6448
654
root 24.6517 16.5201 -6.00025 -172.422 30.6565 -179.607
lowerback -6.07988 -1.95598 -0.334745
upperback 0.331012 -2.63757 2.37944
thorax 3.87988 -1.32519 2.40134
lowerneck -3.92058 -5.17016 -3.42117
upperneck -14.6934 -5.86167 3.10941
head -3.90996 -2.50919 1.72071
rclavicle -4.77083e-014 3.65764e-014
rhumerus 80.1494 0.720626 -78.7723
rradius 20.3475
rwrist 66.8007
rhand -25.2346 22.7807
rfingers 7.12502
rthumb 1.28499 -7.1952
lclavicle -4.77083e-014 3.65764e-014
lhumerus 73.305 -10.4927 51.7742
lradius 51.4999
lwrist -14.46
lhand -43.2915 59.9607
lfingers 7.12502
lthumb -16.1391 89.3087
rfemur -12.7389 -6.44264 24.1803
rtibia 18.5526
rfoot -11.2196 -9.08192
rtoes -2.44009
lfemur 12.2779 -5.95782 -12.8293
ltibia 16.8563
lfoot 12.8884 5.27571
ltoes 49.6143
655
root 24.6493 16.5211 -5.9998 -172.41 30.682 -179.631
lowerback -6.04457 -2.01043 -0.422674
upperback 0.307048 -2.70413 2.42718
thorax 3.84484 -1.35996 2.49536
lowerneck -3.96701 -5.11553 -3.4991
upperneck -14.6641 -5.78097 3.16209
head -3.88994 -2.46764 1.74826
rclavicle -3.18552e-014 -1.59028e-014
rhumerus 80.164 0.877467 -78.7456
rradius 20.337
rwrist 66.7329
rhand -25.3097 22.7962
rfingers 7.12502
rthumb 1.21244 -7.18012
lclavicle -3.18552e-014 -1.59028e-014
lhumerus 73.7192 -10.4445 51.9276
lradius 50.7956
lwrist -14.7787
lhand -43.8163 60.2008
lfingers 7.12502
lthumb -16.6444 89.5072
rfemur -12.8143 -6.35741 24.1508
rtibia 18.6464
rfoot -11.4456 -8.87568
rtoes 4.00452
lfemur 12.2956 -5.8877 -12.8779
ltibia 16.7267
lfoot 13.0487 5.0734
ltoes 49.0367
656
root 24.6479 16.5219 -5.99963 -172.453 30.7546 -179.738
lowerback -5.99536 -2.0301 -0.557799
upperback 0.276238 -2.72051 2.43283
thorax 3.79272 -1.37071 2.57765
lowerneck -4.00218 -5.07139 -3.45449
upperneck -14.6377 -5.72854 3.09432
head -3.87905 -2.44201 1.71541
rclavicle -1.19967e-013 6.20208e-014
rhumerus 80.1204 0.930661 -78.6013
rradius 20.4057
rwrist 66.4986
rhand -25.3766 22.6297
rfingers 7.12502
rthumb 1.14785 -7.34699
lclavicle -1.19967e-013 6.20208e-014
lhumerus 74.044 -10.4171 51.9178
lradius 50.3491
lwrist -14.8838
lhand -44.3154 59.9355
lfingers 7.12502
lthumb -17.1248 89.2008
rfemur -12.8828 -6.27223 24.041
rtibia 18.7365
rfoot -11.3196 -9.03604
rtoes 1.69127
lfemur 12.3413 -5.81503 -12.9993
ltibia 16.6023
lfoot 13.1151 4.91564
ltoes 48.6515
